<svg width="24" height="24" viewBox="0 0 24 24" fill="none" xmlns="http://www.w3.org/2000/svg">
<path d="M18.6638 22.5772C17.3716 23.7909 15.9606 23.5993 14.6024 23.0244C13.1651 22.4367 11.8464 22.4111 10.33 23.0244C8.43114 23.8165 7.42897 23.5865 6.29493 22.5772C-0.140059 16.1508 0.809366 6.36426 8.11466 6.00653C9.89483 6.09596 11.1344 6.95196 12.1761 7.02862C13.7321 6.72199 15.2222 5.84044 16.8837 5.95542C18.8748 6.10874 20.3781 6.87531 21.3671 8.25513C17.2529 10.6443 18.2287 15.8953 22 17.3645C21.2484 19.281 20.2726 21.1846 18.6506 22.59L18.6638 22.5772ZM12.0442 5.92987C11.8464 3.08079 14.2332 0.729971 16.976 0.5C17.3584 3.79625 13.8903 6.24927 12.0442 5.92987Z" fill="black"/>
</svg>
