<svg width="25" height="24" viewBox="0 0 25 24" fill="none" xmlns="http://www.w3.org/2000/svg">
<path d="M7.66675 11H9.66675V13H7.66675V11ZM21.6667 6V20C21.6667 21.1 20.7667 22 19.6667 22H5.66675C5.13632 22 4.62761 21.7893 4.25253 21.4142C3.87746 21.0391 3.66675 20.5304 3.66675 20L3.67675 6C3.67675 4.9 4.55675 4 5.66675 4H6.66675V2H8.66675V4H16.6667V2H18.6667V4H19.6667C20.7667 4 21.6667 4.9 21.6667 6ZM5.66675 8H19.6667V6H5.66675V8ZM19.6667 20V10H5.66675V20H19.6667ZM15.6667 13H17.6667V11H15.6667V13ZM11.6667 13H13.6667V11H11.6667V13Z" fill="#02A2E0"/>
</svg>
