<svg width="32" height="32" viewBox="0 0 32 32" fill="none" xmlns="http://www.w3.org/2000/svg">
<g clip-path="url(#clip0_82_4213)">
<path d="M428.961 -313.5H-40.5771V83.1667H428.961V-313.5Z" fill="#D8D8D8"/>
<path d="M30.5 1.5H2.5V4.60333H30.5V1.5Z" fill="#DC4437"/>
<path d="M30.5 7.72998H2.5V10.8333H30.5V7.72998Z" fill="#DC4437"/>
<path d="M30.5 20.1666H2.5V23.27H30.5V20.1666Z" fill="#DC4437"/>
<path d="M30.5 26.3966H2.5V29.4999H30.5V26.3966Z" fill="#DC4437"/>
<path d="M30.5 13.9366H2.5V17.04H30.5V13.9366Z" fill="#DC4437"/>
<path d="M30.5 4.60339H2.5V7.70673H30.5V4.60339Z" fill="white"/>
<path d="M30.5 10.8334H2.5V13.9367H30.5V10.8334Z" fill="white"/>
<path d="M30.5 23.27H2.5V26.3734H30.5V23.27Z" fill="white"/>
<path d="M30.5 17.0634H2.5V20.1667H30.5V17.0634Z" fill="white"/>
<path d="M17.5769 1.5H2.5V17.0633H17.5769V1.5Z" fill="#2A66B7"/>
<path d="M5.40762 2.43335L5.90301 3.57668L7.02301 3.76335L6.20454 4.67335L6.39839 5.93335L5.40762 5.32668L4.41685 5.93335L4.6107 4.67335L3.79224 3.76335L4.91224 3.57668L5.40762 2.43335Z" fill="white"/>
<path d="M9.8229 2.43335L10.3183 3.57668L11.4383 3.76335L10.6414 4.67335L10.8137 5.93335L9.8229 5.32668L8.83213 5.93335L9.00444 4.67335L8.20752 3.76335L9.32752 3.57668L9.8229 2.43335Z" fill="white"/>
<path d="M14.2383 2.43335L14.7337 3.57668L15.8537 3.76335L15.0352 4.67335L15.2291 5.93335L14.2383 5.32668L13.2475 5.93335L13.4414 4.67335L12.6229 3.76335L13.7429 3.57668L14.2383 2.43335Z" fill="white"/>
<path d="M7.66922 7.09998L8.1646 8.24331L9.2846 8.42998L8.48768 9.33998L8.65999 10.6L7.66922 9.99331L6.67845 10.6L6.85076 9.33998L6.05383 8.42998L7.17383 8.24331L7.66922 7.09998Z" fill="white"/>
<path d="M12.0846 7.09998L12.58 8.24331L13.7 8.42998L12.8815 9.33998L13.0754 10.6L12.0846 9.99331L11.0939 10.6L11.2877 9.33998L10.4692 8.42998L11.5892 8.24331L12.0846 7.09998Z" fill="white"/>
<path d="M5.40762 12.0466L5.90301 13.19L7.02301 13.3766L6.20454 14.2633L6.39839 15.5466L5.40762 14.94L4.41685 15.5466L4.6107 14.2633L3.79224 13.3766L4.91224 13.19L5.40762 12.0466Z" fill="white"/>
<path d="M9.8229 12.0466L10.3183 13.19L11.4383 13.3766L10.6414 14.2633L10.8137 15.5466L9.8229 14.94L8.83213 15.5466L9.00444 14.2633L8.20752 13.3766L9.32752 13.19L9.8229 12.0466Z" fill="white"/>
<path d="M14.2383 12.0466L14.7337 13.19L15.8537 13.3766L15.0352 14.2633L15.2291 15.5466L14.2383 14.94L13.2475 15.5466L13.4414 14.2633L12.6229 13.3766L13.7429 13.19L14.2383 12.0466Z" fill="white"/>
</g>
<defs>
<clipPath id="clip0_82_4213">
<rect x="2.5" y="1.5" width="28" height="28" rx="14" fill="white"/>
</clipPath>
</defs>
</svg>
