<svg width="25" height="24" viewBox="0 0 25 24" fill="none" xmlns="http://www.w3.org/2000/svg">
<path d="M12.3334 12C11.2334 12 10.2917 11.6083 9.50837 10.825C8.72504 10.0417 8.33337 9.1 8.33337 8C8.33337 6.9 8.72504 5.95833 9.50837 5.175C10.2917 4.39167 11.2334 4 12.3334 4C13.4334 4 14.375 4.39167 15.1584 5.175C15.9417 5.95833 16.3334 6.9 16.3334 8C16.3334 9.1 15.9417 10.0417 15.1584 10.825C14.375 11.6083 13.4334 12 12.3334 12ZM4.33337 18V17.2C4.33337 16.6333 4.47937 16.1127 4.77137 15.638C5.06337 15.1633 5.45071 14.8007 5.93337 14.55C6.96671 14.0333 8.01671 13.646 9.08337 13.388C10.15 13.13 11.2334 13.0007 12.3334 13C13.4334 12.9993 14.5167 13.1287 15.5834 13.388C16.65 13.6473 17.7 14.0347 18.7334 14.55C19.2167 14.8 19.6044 15.1627 19.8964 15.638C20.1884 16.1133 20.334 16.634 20.3334 17.2V18C20.3334 18.55 20.1377 19.021 19.7464 19.413C19.355 19.805 18.884 20.0007 18.3334 20H6.33337C5.78337 20 5.31271 19.8043 4.92137 19.413C4.53004 19.0217 4.33404 18.5507 4.33337 18ZM6.33337 18H18.3334V17.2C18.3334 17.0167 18.2877 16.85 18.1964 16.7C18.105 16.55 17.984 16.4333 17.8334 16.35C16.9334 15.9 16.025 15.5627 15.1084 15.338C14.1917 15.1133 13.2667 15.0007 12.3334 15C11.4 14.9993 10.475 15.112 9.55837 15.338C8.64171 15.564 7.73337 15.9013 6.83337 16.35C6.68337 16.4333 6.56237 16.55 6.47037 16.7C6.37837 16.85 6.33271 17.0167 6.33337 17.2V18ZM12.3334 10C12.8834 10 13.3544 9.80433 13.7464 9.413C14.1384 9.02167 14.334 8.55067 14.3334 8C14.3327 7.44933 14.137 6.97867 13.7464 6.588C13.3557 6.19733 12.8847 6.00133 12.3334 6C11.782 5.99867 11.3114 6.19467 10.9214 6.588C10.5314 6.98133 10.3354 7.452 10.3334 8C10.3314 8.548 10.5274 9.019 10.9214 9.413C11.3154 9.807 11.786 10.0027 12.3334 10Z" fill="#02A2E0"/>
</svg>
