<svg width="24" height="24" viewBox="0 0 24 24" fill="none" xmlns="http://www.w3.org/2000/svg">
<path d="M12 13.826C12.93 13.826 13.8219 13.4566 14.4795 12.799C15.1371 12.1414 15.5065 11.2495 15.5065 10.3195C15.5065 9.38956 15.1371 8.49767 14.4795 7.84007C13.8219 7.18247 12.93 6.81304 12 6.81304C11.07 6.81304 10.1781 7.18247 9.52052 7.84007C8.86292 8.49767 8.49349 9.38956 8.49349 10.3195C8.49349 11.2495 8.86292 12.1414 9.52052 12.799C10.1781 13.4566 11.07 13.826 12 13.826ZM12 13.826C13.462 13.8261 14.8737 14.3601 15.9699 15.3275C17.066 16.295 17.7712 17.6294 17.953 19.08C16.2882 20.4854 14.1787 21.2544 12 21.25C9.82131 21.2544 7.71178 20.4854 6.04699 19.08M12 13.826C10.538 13.8261 9.12629 14.3601 8.03013 15.3275C6.93397 16.295 6.22877 17.6294 6.04699 19.08M6.04699 19.08C4.59481 17.8588 3.55331 16.2206 3.06372 14.3874C2.57413 12.5542 2.66013 10.6148 3.31006 8.83219C3.95998 7.04955 5.1424 5.5099 6.69697 4.42201C8.25154 3.33412 10.1031 2.75061 12.0005 2.75061C13.8979 2.75061 15.7494 3.33412 17.304 4.42201C18.8586 5.5099 20.041 7.04955 20.6909 8.83219C21.3408 10.6148 21.4268 12.5542 20.9373 14.3874C20.4477 16.2206 19.4062 17.8588 17.954 19.08" stroke="#F0F7FF" stroke-width="1.5" stroke-linecap="round" stroke-linejoin="round"/>
</svg>
